<?xml version="1.0" standalone="no"?>
<!DOCTYPE svg PUBLIC "-//W3C//DTD SVG 20010904//EN"
 "http://www.w3.org/TR/2001/REC-SVG-20010904/DTD/svg10.dtd">
<svg version="1.0" xmlns="http://www.w3.org/2000/svg"
 width="500.000000pt" height="500.000000pt" viewBox="0 0 500.000000 500.000000"
 preserveAspectRatio="xMidYMid meet">

<g transform="translate(0.000000,500.000000) scale(0.100000,-0.100000)"
fill="#000000" stroke="none">
<path d="M2580 3986 l-145 -33 66 -21 65 -22 99 20 c108 22 137 39 119 68 -16
25 -43 23 -204 -12z"/>
<path d="M1470 3751 c-432 -92 -797 -171 -812 -174 -21 -6 -28 -13 -28 -33 0
-13 7 -27 15 -30 12 -5 1366 274 1720 353 l70 16 -50 18 c-27 9 -68 17 -90 17
-22 0 -393 -75 -825 -167z"/>
<path d="M1195 3286 c-22 -7 -53 -20 -70 -28 -44 -23 -125 -97 -125 -115 0
-10 14 -2 42 21 43 37 118 66 170 66 34 0 95 -24 122 -48 30 -27 56 -93 56
-142 -1 -160 -101 -327 -347 -581 -73 -75 -133 -139 -133 -143 0 -3 139 -6
309 -6 l308 0 7 77 c3 42 6 88 6 102 -1 24 -2 24 -21 -11 -34 -65 -58 -71
-286 -76 -124 -3 -203 -1 -203 5 0 5 19 25 43 44 82 66 268 253 317 319 141
190 160 374 50 474 -60 54 -155 71 -245 42z"/>
<path d="M2012 3123 c-312 -431 -392 -544 -392 -553 0 -6 78 -10 216 -10 l216
0 -4 -94 c-3 -81 -6 -98 -25 -118 -13 -14 -23 -27 -23 -31 0 -4 50 -7 110 -7
61 0 110 3 110 6 0 3 -9 13 -21 23 -16 13 -23 35 -31 104 -6 48 -8 94 -4 102
4 10 20 15 51 15 40 0 47 3 55 26 16 41 13 44 -50 44 l-60 0 0 335 c0 205 -4
335 -10 335 -5 0 -67 -80 -138 -177z m38 -243 l0 -250 -181 0 c-99 0 -179 4
-177 9 5 12 350 491 355 491 1 0 3 -112 3 -250z"/>
<path d="M2472 3219 c-62 -45 -111 -83 -109 -86 3 -2 28 5 56 17 28 11 54 20
56 20 10 0 5 -746 -6 -783 -6 -24 -19 -42 -35 -49 -47 -21 -23 -28 101 -28
113 0 151 8 111 23 -8 3 -23 18 -33 34 -16 25 -18 65 -23 480 l-5 453 -113
-81z"/>
<path d="M2970 3283 c-74 -26 -196 -122 -172 -137 5 -3 18 4 28 15 52 58 180
86 247 54 20 -9 44 -29 53 -43 25 -37 23 -116 -5 -169 -22 -45 -97 -111 -150
-132 -17 -8 -28 -17 -25 -22 3 -5 14 -4 25 2 30 16 123 13 157 -5 44 -23 69
-60 82 -121 37 -176 -113 -407 -360 -555 -68 -41 -65 -39 -57 -46 3 -4 37 11
74 31 214 119 375 259 432 376 45 93 52 186 19 249 -36 67 -98 102 -193 108
l-75 5 58 34 c94 57 130 102 146 182 25 135 -128 229 -284 174z"/>
<path d="M3695 3286 c-63 -20 -104 -45 -156 -93 -59 -55 -55 -78 4 -28 103 88
258 80 317 -17 46 -76 34 -185 -34 -323 -55 -110 -143 -222 -298 -377 -65 -65
-118 -122 -118 -128 0 -6 108 -10 304 -10 l304 0 5 23 c9 37 20 177 14 177 -3
0 -14 -16 -23 -35 -29 -63 -53 -69 -289 -72 l-210 -4 70 62 c135 120 281 275
333 352 97 147 119 299 55 391 -56 81 -172 115 -278 82z"/>
<path d="M1257 1935 c-9 -8 -13 -24 -10 -35 5 -20 10 -20 1253 -20 1243 0
1248 0 1253 20 14 52 72 50 -1253 50 -1072 0 -1230 -2 -1243 -15z"/>
<path d="M802 1704 c-38 -26 -28 -58 28 -93 53 -33 57 -40 38 -59 -18 -18 -36
-15 -65 14 -30 30 -33 29 -26 -8 5 -25 10 -28 45 -28 98 0 115 66 28 110 -26
13 -40 27 -40 40 0 27 37 26 67 -2 19 -17 23 -18 23 -6 0 49 -51 65 -98 32z"/>
<path d="M935 1625 l0 -96 65 3 c61 3 65 5 68 28 l4 25 -22 -22 c-37 -40 -80
-27 -80 23 0 39 22 54 51 35 16 -9 19 -8 19 8 0 15 -8 21 -32 23 -25 2 -33 8
-33 23 0 27 50 33 76 9 15 -14 19 -14 19 -3 0 27 -24 39 -79 39 l-56 0 0 -95z"/>
<path d="M1096 1712 c-3 -6 -2 -13 4 -17 14 -9 13 -138 -2 -153 -9 -9 -5 -12
19 -12 31 0 32 1 26 36 -6 33 -4 36 18 32 17 -2 27 -12 34 -35 7 -25 15 -33
32 -33 28 0 28 4 2 41 -19 28 -20 31 -5 48 23 25 20 68 -4 81 -30 16 -116 24
-124 12z m104 -26 c6 -8 10 -25 8 -38 -2 -18 -10 -24 -35 -26 -32 -3 -33 -2
-33 37 0 36 3 41 24 41 13 0 29 -7 36 -14z"/>
<path d="M1265 1711 c-3 -5 -1 -12 4 -15 5 -3 23 -42 41 -86 18 -44 37 -80 44
-80 6 0 27 39 46 87 19 48 37 92 39 96 2 5 -5 7 -14 5 -10 -2 -19 -14 -21 -28
-1 -14 -11 -47 -22 -75 -19 -48 -20 -49 -30 -25 -5 14 -17 42 -25 63 -9 21
-14 44 -11 52 5 11 -1 15 -19 15 -14 0 -28 -4 -32 -9z"/>
<path d="M1470 1718 c0 -2 -2 -45 -3 -96 l-2 -92 28 0 c25 0 27 2 17 21 -11
19 -10 114 1 149 2 9 -4 16 -18 18 -13 2 -23 2 -23 0z"/>
<path d="M1591 1706 c-28 -16 -50 -52 -51 -84 0 -30 25 -78 45 -86 41 -15 115
1 115 25 0 6 -7 6 -19 -1 -31 -16 -66 -12 -86 10 -21 23 -25 91 -6 114 19 23
60 20 88 -6 22 -20 23 -21 23 -2 0 10 -4 24 -8 30 -10 15 -73 15 -101 0z"/>
<path d="M1738 1640 c3 -55 1 -85 -8 -95 -11 -13 -8 -15 16 -15 l29 0 0 95 c0
90 -1 95 -21 95 -20 0 -20 -4 -16 -80z"/>
<path d="M1861 1706 c-54 -30 -68 -110 -26 -151 54 -55 155 -11 155 68 0 49
-8 66 -41 82 -34 18 -57 18 -88 1z m78 -32 c39 -49 22 -124 -27 -124 -33 0
-45 8 -61 37 -41 78 36 153 88 87z"/>
<path d="M2040 1702 c-31 -25 -22 -65 19 -82 45 -18 67 -46 51 -65 -18 -22
-38 -19 -65 11 l-25 27 0 -32 c0 -30 1 -31 48 -31 35 0 54 5 65 18 32 35 17
62 -51 96 -21 11 -32 23 -30 34 5 26 37 26 65 0 l25 -23 -4 30 c-3 26 -7 30
-39 33 -23 2 -43 -3 -59 -16z"/>
<path d="M2235 1625 l0 -95 30 0 c22 0 26 3 17 12 -15 15 -16 144 -2 153 16
10 1 25 -23 25 -21 0 -22 -4 -22 -95z"/>
<path d="M2316 1712 c-2 -4 -1 -14 5 -22 12 -20 11 -117 -1 -141 -9 -15 -7
-19 7 -19 17 0 18 8 15 73 l-3 72 59 -60 c32 -33 61 -67 64 -75 10 -29 16 -4
19 88 3 76 2 92 -10 90 -11 -2 -14 -17 -13 -63 l3 -60 -62 63 c-61 61 -73 70
-83 54z"/>
<path d="M2528 1646 c3 -43 -1 -82 -7 -95 -10 -18 -9 -21 7 -21 16 0 17 7 14
65 -2 36 -1 65 2 65 4 0 18 -27 33 -60 15 -37 30 -57 35 -52 5 5 22 36 39 68
l29 59 -3 -72 c-2 -68 -1 -73 18 -73 19 0 20 6 18 92 -1 76 -5 94 -17 96 -11
3 -26 -17 -47 -65 l-31 -68 -19 40 c-10 22 -23 52 -28 68 -6 16 -17 27 -28 27
-16 0 -18 -8 -15 -74z"/>
<path d="M2801 1706 c-54 -30 -68 -110 -26 -151 54 -55 155 -11 155 68 0 49
-8 66 -41 82 -34 18 -57 18 -88 1z m78 -32 c39 -49 22 -124 -27 -124 -33 0
-45 8 -61 37 -41 78 36 153 88 87z"/>
<path d="M2956 1712 c-3 -6 -2 -13 4 -17 14 -9 13 -138 -2 -153 -19 -19 92
-16 120 4 27 19 29 58 3 81 -16 13 -17 20 -8 34 9 15 8 22 -3 34 -19 19 -105
31 -114 17z m89 -37 c0 -13 -8 -21 -22 -23 -19 -3 -23 1 -23 23 0 22 4 26 23
23 14 -2 22 -10 22 -23z m9 -61 c28 -28 16 -62 -24 -66 -23 -3 -25 1 -28 40
-3 36 0 42 17 42 11 0 27 -7 35 -16z"/>
<path d="M3125 1711 c-3 -5 -1 -12 5 -16 13 -8 13 -121 0 -146 -9 -17 -7 -19
17 -19 l28 0 0 95 c0 91 -1 95 -22 95 -12 0 -24 -4 -28 -9z"/>
<path d="M3215 1625 l0 -96 60 3 c54 3 60 5 63 26 4 27 -2 28 -29 1 -37 -37
-54 -22 -57 55 -2 37 2 73 7 80 13 16 4 26 -23 26 -20 0 -21 -5 -21 -95z"/>
<path d="M3365 1625 l0 -95 30 0 c22 0 26 3 17 12 -15 15 -16 144 -2 153 16
10 1 25 -23 25 -21 0 -22 -4 -22 -95z"/>
<path d="M3499 1713 c-1 -5 -1 -11 0 -15 1 -11 -50 -140 -62 -155 -7 -10 -4
-13 12 -13 16 0 21 6 21 26 0 23 3 25 43 22 37 -3 42 -6 40 -25 -2 -19 2 -23
26 -23 l29 0 -33 78 c-18 42 -35 85 -38 95 -6 17 -36 24 -38 10z m37 -110 c-2
-2 -15 -3 -28 -1 -24 3 -24 4 -10 38 l15 35 14 -34 c8 -18 12 -35 9 -38z"/>
<path d="M3626 1712 c-3 -6 -2 -13 4 -17 14 -9 13 -138 -2 -153 -9 -9 -5 -12
19 -12 31 0 32 1 26 36 -6 33 -4 36 18 32 17 -2 27 -12 34 -35 7 -25 15 -33
32 -33 28 0 28 4 2 41 -19 28 -20 31 -5 48 23 25 20 68 -4 81 -30 16 -116 24
-124 12z m104 -26 c6 -8 10 -25 8 -38 -2 -18 -10 -24 -35 -26 -32 -3 -33 -2
-33 37 0 36 3 41 24 41 13 0 29 -7 36 -14z"/>
<path d="M3818 1640 c3 -55 1 -85 -8 -95 -11 -13 -8 -15 16 -15 l29 0 0 95 c0
90 -1 95 -21 95 -20 0 -20 -4 -16 -80z"/>
<path d="M3944 1710 c-33 -13 -54 -50 -54 -96 0 -34 5 -47 26 -63 62 -49 154
-4 154 74 0 67 -64 110 -126 85z m75 -36 c25 -32 27 -86 5 -108 -23 -24 -70
-20 -88 6 -21 29 -20 92 0 112 23 24 60 19 83 -10z"/>
<path d="M4120 1702 c-31 -25 -22 -65 19 -82 45 -18 67 -46 51 -65 -18 -22
-38 -19 -65 11 l-25 27 0 -32 c0 -30 1 -31 48 -31 35 0 54 5 65 18 32 35 17
62 -51 96 -21 11 -32 23 -30 34 5 26 37 26 65 0 l25 -23 -4 30 c-3 26 -7 30
-39 33 -23 2 -43 -3 -59 -16z"/>
</g>
</svg>
